<?xml version="1.0" standalone="no"?>
<!DOCTYPE svg PUBLIC "-//W3C//DTD SVG 20010904//EN"
 "http://www.w3.org/TR/2001/REC-SVG-20010904/DTD/svg10.dtd">
<svg version="1.0" xmlns="http://www.w3.org/2000/svg"
 width="1280.000000pt" height="1280.000000pt" viewBox="0 0 1280.000000 1280.000000"
 preserveAspectRatio="xMidYMid meet">
<metadata>
Created by potrace 1.15, written by Peter Selinger 2001-2017
</metadata>
<g transform="translate(0.000000,1280.000000) scale(0.100000,-0.100000)"
fill="#6cfcf1" stroke="none">
<path d="M5621 12683 c-51 -26 -76 -66 -75 -117 l1 -43 -178 -103 -178 -102
64 -85 64 -84 -21 -35 c-27 -46 -18 -96 22 -126 32 -23 38 -46 18 -66 -7 -7
-8 -12 -2 -12 15 0 30 14 43 37 7 15 17 20 28 16 34 -13 3 14 -37 32 -41 19
-55 42 -48 86 6 41 26 31 75 -35 26 -36 52 -65 57 -66 4 0 60 43 122 95 l114
96 0 -43 c0 -63 -39 -831 -42 -834 -3 -2 -183 16 -301 30 l-37 4 2 -201 3
-202 510 0 c447 0 510 2 510 15 0 13 88 16 710 20 l710 5 -3 100 c-4 155 -23
589 -26 592 -2 2 -630 -164 -731 -193 -11 -4 21 19 70 51 191 121 307 234 370
362 33 66 39 89 43 158 13 252 -190 538 -445 626 -155 53 -306 40 -488 -42
-37 -17 -69 -23 -126 -24 -63 0 -81 -4 -112 -25 -39 -27 -71 -76 -82 -127 -14
-66 32 -155 97 -189 l30 -16 -33 -34 c-18 -19 -66 -51 -106 -72 -40 -20 -72
-42 -71 -49 3 -14 157 -173 167 -173 3 1 26 28 51 62 98 132 257 247 364 263
104 16 240 -68 265 -163 24 -89 -55 -181 -270 -317 -223 -140 -263 -168 -321
-226 -62 -61 -70 -80 -91 -225 l-13 -89 -8 73 c-5 39 -12 74 -17 77 -4 3 -65
-2 -134 -11 -70 -9 -128 -14 -130 -12 -3 2 31 260 75 574 43 313 80 584 82
603 l3 34 -175 59 c-142 47 -179 57 -198 48 -18 -8 -29 -6 -50 10 -40 29 -81
34 -121 13z"/>
<path d="M2903 11986 c-43 -19 -67 -60 -69 -115 l-2 -46 -168 -97 c-93 -54
-173 -99 -179 -101 -5 -2 21 -43 58 -90 l67 -88 -21 -29 c-31 -41 -21 -95 23
-133 29 -24 31 -30 20 -47 -17 -27 -15 -32 7 -20 11 5 22 19 26 29 3 11 14 22
23 24 12 3 4 10 -25 22 -45 19 -70 58 -58 94 11 35 32 24 82 -44 27 -35 51
-64 54 -65 3 0 56 43 118 95 63 53 115 94 118 92 5 -5 -37 -860 -43 -866 -3
-4 -200 14 -291 26 l-43 6 0 -202 0 -201 1025 0 c564 0 1025 3 1025 8 0 9 -62
436 -64 439 -1 1 -61 -6 -134 -16 -73 -9 -134 -16 -135 -14 -2 1 34 269 80
595 45 326 82 599 80 607 -1 9 -68 36 -175 72 -140 47 -178 56 -196 48 -18 -9
-30 -6 -57 10 -40 25 -79 27 -123 6 -41 -20 -59 -49 -66 -110 l-5 -50 -168
-96 c-93 -53 -171 -100 -174 -103 -4 -3 22 -43 56 -88 63 -81 63 -82 47 -109
-28 -47 -21 -95 19 -136 34 -35 35 -37 19 -60 -15 -24 -15 -24 6 -13 13 7 25
20 27 30 3 11 15 21 27 23 17 3 12 7 -25 24 -25 12 -49 29 -53 38 -10 28 -7
62 8 74 11 10 23 0 62 -51 26 -35 50 -67 54 -71 4 -4 58 35 121 87 63 53 118
96 122 96 4 0 6 -15 3 -32 -3 -18 -13 -210 -23 -426 -9 -215 -20 -397 -23
-403 -5 -7 -50 -5 -148 5 -78 9 -153 16 -167 16 l-25 0 2 -175 c2 -96 0 -169
-3 -162 -3 7 -17 90 -30 185 -12 95 -26 178 -30 184 -6 9 -39 8 -136 -4 -70
-9 -130 -15 -131 -13 -2 2 33 266 77 587 45 321 81 593 81 605 0 19 -20 28
-172 79 -138 46 -176 55 -197 47 -20 -7 -32 -5 -51 9 -35 25 -89 31 -127 14z"/>
<path d="M8944 11936 c-48 -22 -74 -61 -74 -115 l0 -47 -175 -99 c-107 -61
-173 -105 -170 -112 2 -7 30 -46 61 -88 55 -73 56 -76 40 -100 -9 -13 -16 -42
-16 -64 0 -31 7 -45 30 -68 32 -30 37 -52 18 -71 -15 -15 -3 -16 23 -2 10 6
19 17 19 25 0 8 8 18 18 24 15 8 12 12 -19 25 -48 20 -61 38 -57 78 5 50 28
45 73 -18 21 -30 45 -60 52 -66 9 -7 41 14 126 86 63 53 116 96 118 96 7 0
-37 -859 -44 -866 -6 -6 -178 8 -294 23 l-43 6 0 -202 0 -201 516 0 c514 0
516 0 511 20 -3 12 -18 111 -33 220 l-28 200 -26 0 c-15 0 -75 -7 -135 -15
-59 -9 -109 -14 -111 -13 -1 2 35 275 81 608 47 332 83 605 82 606 -1 1 -82
28 -180 60 -151 50 -180 57 -197 46 -17 -10 -25 -9 -48 8 -37 27 -81 33 -118
16z"/>
<path d="M10874 9990 c-39 -10 -101 -32 -138 -49 -59 -27 -76 -30 -121 -25
-69 8 -115 -8 -159 -56 -30 -33 -56 -91 -56 -125 0 -54 48 -132 102 -165 l27
-16 -37 -36 c-20 -20 -70 -53 -110 -73 l-72 -36 87 -95 88 -94 20 27 c53 73
140 165 197 208 170 129 303 133 418 14 117 -120 53 -221 -268 -424 -200 -127
-275 -184 -314 -240 -51 -73 -72 -296 -44 -455 l11 -65 709 -3 c391 -1 713 1
717 5 6 7 -17 683 -24 689 -1 2 -169 -42 -372 -97 -203 -54 -372 -99 -375 -99
-3 0 27 19 65 42 183 109 330 249 392 375 31 63 37 87 41 158 9 161 -62 319
-208 465 -166 168 -364 226 -576 170z"/>
<path d="M954 9980 c-42 -17 -74 -68 -74 -118 l-1 -47 -174 -99 c-96 -55 -175
-101 -175 -104 0 -3 24 -37 53 -76 71 -95 70 -93 53 -118 -9 -12 -16 -41 -16
-64 0 -35 5 -47 30 -67 31 -27 38 -55 18 -75 -7 -7 -8 -12 -2 -12 14 0 44 33
44 48 0 6 10 12 23 14 19 3 16 6 -18 22 -22 10 -46 25 -52 34 -17 21 -16 67 1
81 11 9 24 -2 66 -59 28 -38 54 -70 56 -70 2 0 55 43 116 95 62 52 115 95 118
95 6 0 5 -7 -19 -502 -10 -197 -20 -361 -24 -364 -3 -3 -72 1 -154 10 -81 9
-156 16 -166 16 -16 0 -17 -14 -15 -197 l3 -198 513 -3 514 -2 -6 27 c-3 16
-8 48 -11 73 -3 25 -9 58 -12 75 -5 29 -4 28 55 -27 98 -90 242 -148 372 -148
104 0 235 45 318 108 79 60 164 207 202 349 28 101 37 305 20 439 -35 283
-161 622 -280 757 -72 80 -138 110 -254 115 -110 5 -168 -14 -281 -89 -142
-95 -241 -238 -284 -410 -56 -221 -66 -562 -22 -738 12 -46 19 -86 16 -90 -5
-5 -168 -31 -171 -27 -1 0 11 93 27 206 111 800 138 1004 135 1007 -2 2 -82
30 -178 62 -132 44 -179 56 -193 49 -13 -8 -29 -5 -60 11 -44 22 -76 25 -111
11z m1194 -549 c51 -26 107 -87 131 -141 60 -137 89 -481 47 -560 -51 -96
-156 -148 -241 -120 -131 43 -191 201 -182 478 6 200 35 284 116 339 41 28 80
29 129 4z"/>
<path d="M854 7372 c-39 -10 -109 -37 -157 -61 -146 -72 -222 -166 -248 -306
-35 -189 129 -518 280 -563 95 -29 238 -9 378 53 29 13 53 21 53 18 0 -3 -50
-201 -111 -440 -61 -239 -108 -437 -105 -440 9 -9 446 -16 446 -8 0 5 18 364
40 798 22 434 39 791 38 792 -2 2 -49 26 -106 54 -216 108 -367 139 -508 103z"/>
<path d="M11366 7229 c-44 -12 -101 -56 -122 -95 -11 -19 -44 -54 -74 -77 -30
-23 -76 -60 -101 -84 l-46 -43 44 -143 c24 -78 48 -158 53 -178 l10 -36 111
56 111 55 37 -43 37 -44 85 33 c46 18 94 36 107 41 19 7 26 3 47 -30 14 -21
29 -55 32 -75 l6 -38 -107 8 -106 7 0 -37 0 -37 -47 7 c-27 4 -72 13 -101 19
l-54 13 6 -57 c3 -31 8 -100 12 -154 6 -85 9 -97 23 -92 51 20 208 47 281 49
109 1 171 -16 210 -60 78 -90 35 -216 -97 -280 -104 -51 -228 -30 -350 60 -32
23 -71 61 -87 84 -16 23 -32 42 -37 42 -4 0 -76 -59 -158 -131 l-151 -130 26
-51 c34 -67 123 -160 194 -203 213 -129 592 -150 801 -45 102 52 205 167 260
289 54 118 73 212 73 361 1 120 -1 139 -21 176 -27 50 -83 101 -141 126 -41
18 -43 21 -29 41 44 69 68 225 48 316 -30 139 -119 246 -265 316 -128 61 -194
74 -356 73 -75 -1 -148 -5 -164 -9z"/>
<path d="M10636 4524 c-3 -9 -6 -42 -6 -73 0 -44 -5 -65 -21 -85 -30 -38 -37
-110 -14 -152 13 -25 16 -44 11 -78 l-7 -46 -60 0 c-46 0 -59 -3 -59 -15 0
-28 43 -107 76 -139 l32 -31 -28 -350 c-15 -193 -25 -352 -23 -355 3 -3 128
-7 279 -11 150 -3 276 -8 280 -11 14 -15 -31 -183 -87 -326 -16 -40 -29 -75
-29 -77 0 -3 84 -5 186 -5 l186 0 -6 28 c-11 54 -66 365 -66 374 0 6 75 7 201
2 l201 -7 -6 44 c-3 24 -11 127 -17 229 -6 102 -12 186 -14 188 -2 2 -75 -9
-164 -24 -88 -15 -163 -25 -166 -23 -2 3 21 85 51 183 30 98 53 180 51 183 -3
2 -86 1 -187 -3 -178 -7 -181 -8 -175 -28 31 -107 55 -218 61 -288 l6 -84
-158 -27 c-87 -14 -160 -24 -162 -22 -2 2 39 142 91 312 l95 308 48 5 c149 15
196 191 76 280 l-30 22 18 53 18 52 -76 7 c-41 3 -148 6 -237 6 -139 0 -164
-2 -169 -16z"/>
<path d="M1770 4424 c-258 -55 -400 -220 -388 -448 5 -96 40 -172 98 -214 19
-14 39 -29 43 -33 5 -3 -16 -20 -46 -37 -66 -37 -138 -115 -172 -187 -45 -96
-58 -175 -52 -325 8 -199 45 -308 132 -395 91 -91 192 -119 405 -112 156 5
225 19 318 65 150 73 252 254 269 477 12 165 -40 291 -177 427 l-88 87 38 40
c79 83 117 211 99 338 -24 170 -131 281 -308 319 -79 16 -88 16 -171 -2z m198
-315 c37 -13 85 -80 85 -118 0 -44 -49 -121 -89 -137 -43 -18 -68 -18 -110 2
-101 48 -79 220 32 254 40 12 47 12 82 -1z m10 -734 c43 -36 96 -195 90 -270
-9 -110 -111 -200 -228 -199 -63 0 -109 21 -135 60 -21 32 -49 230 -40 287 10
71 48 103 155 133 76 21 124 17 158 -11z"/>
<path d="M3860 2588 c-26 -14 -50 -36 -59 -54 l-16 -31 -209 -6 c-115 -4 -276
-7 -358 -7 l-150 0 7 -77 c14 -168 47 -498 51 -502 2 -2 196 50 431 116 235
66 429 119 431 117 2 -1 -67 -293 -152 -650 -86 -356 -154 -649 -152 -651 4
-5 569 18 575 23 2 1 -2 222 -8 491 -6 268 -12 542 -13 608 l-3 120 36 5 c108
18 179 131 144 230 -26 74 -94 130 -159 130 -17 0 -26 7 -30 25 -6 24 -10 25
-84 25 -77 0 -77 1 -93 33 -16 34 -86 77 -124 77 -11 0 -41 -10 -65 -22z"/>
<path d="M9066 2543 c-237 -13 -431 -25 -433 -26 -1 -2 -34 -178 -73 -392 -39
-215 -73 -398 -76 -407 -4 -12 29 -41 129 -112 74 -53 137 -96 140 -96 3 0 37
20 77 44 139 86 280 124 362 97 114 -38 189 -237 124 -331 -57 -85 -254 -142
-368 -108 -78 23 -127 122 -112 227 l6 46 -102 -100 c-56 -55 -133 -135 -172
-177 l-70 -78 21 -34 c29 -47 156 -166 214 -199 65 -39 163 -74 240 -87 165
-29 428 64 565 201 107 105 144 212 146 414 1 180 -41 299 -142 407 -170 182
-422 212 -686 81 -38 -18 -71 -32 -73 -29 -5 4 45 317 50 323 2 1 185 -40 407
-92 223 -52 409 -95 415 -95 6 0 9 30 7 80 l-4 80 32 0 c37 0 95 51 106 93 17
70 -36 149 -110 163 -20 3 -35 9 -34 13 0 3 0 32 -1 64 l-1 57 -77 -1 c-43 -1
-271 -12 -507 -26z"/>
<path d="M6402 1955 c-74 -16 -180 -66 -277 -130 -55 -37 -73 -44 -85 -36 -58
43 -117 51 -170 22 -92 -48 -108 -175 -32 -244 20 -18 20 -18 -8 -80 -15 -34
-34 -81 -40 -104 -7 -24 -17 -43 -22 -43 -5 0 -32 12 -60 26 l-51 26 6 -69 c8
-83 30 -162 56 -194 14 -19 19 -48 24 -144 16 -331 164 -571 432 -700 209
-101 394 -106 613 -19 152 61 260 149 319 260 47 87 63 162 63 284 0 265 -101
402 -344 464 -286 74 -561 -22 -668 -234 l-28 -54 0 44 c1 25 6 74 13 110 l12
65 58 6 c65 7 112 35 147 86 31 45 38 125 16 177 -9 21 -16 40 -16 43 0 13
115 54 174 62 129 18 245 -19 342 -111 31 -29 68 -73 82 -97 22 -38 27 -42 33
-25 7 17 49 461 49 509 0 17 -15 24 -93 44 -277 72 -410 85 -545 56z m394
-1126 c129 -33 150 -178 43 -289 -102 -105 -244 -105 -329 -2 -81 98 -48 198
87 266 67 34 132 42 199 25z"/>
</g>
</svg>
